<svg width="426" height="428" viewBox="0 0 426 428" fill="none" xmlns="http://www.w3.org/2000/svg">
<path d="M125.48 398.645C77.2741 414.713 29.0685 382.576 13 366.507M141.548 414.713C141.548 414.713 125.48 350.439 157.617 318.302C157.617 318.302 93.3426 318.302 45.137 270.096C-3.06852 221.891 13 125.48 45.137 93.3426C29.0685 45.137 61.2056 13 61.2056 13C61.2056 13 109.411 13 141.548 45.137C173.685 29.0685 254.028 29.0685 286.165 45.137C318.302 13 366.507 13 366.507 13C366.507 13 398.645 45.137 382.576 93.3426C414.713 125.48 430.782 221.891 382.576 270.096C334.37 318.302 270.096 318.302 270.096 318.302C302.233 350.439 286.165 414.713 286.165 414.713H141.548Z" stroke="white" stroke-width="25" stroke-linecap="round" stroke-linejoin="round"/>
</svg>
