<svg width="400" height="400" viewBox="0 0 400 400" fill="none" xmlns="http://www.w3.org/2000/svg">
<path d="M328.571 114.286L351.329 157.143L400 163.057L364.286 195.243L371.429 242.857L328.571 216.071L285.714 242.857L292.857 195.243L257.143 163.057L307.143 157.143L328.571 114.286ZM285.714 400H257.143V328.571C257.12 309.634 249.587 291.479 236.197 278.089C222.806 264.698 204.651 257.166 185.714 257.143H100C81.0629 257.166 62.908 264.698 49.5174 278.089C36.1269 291.479 28.5941 309.634 28.5714 328.571V400H0V328.571C0.030248 302.059 10.5756 276.641 29.3227 257.894C48.0698 239.147 73.4876 228.602 100 228.571H185.714C212.227 228.602 237.644 239.147 256.392 257.894C275.139 276.641 285.684 302.059 285.714 328.571V400ZM142.857 28.5714C156.984 28.5714 170.794 32.7606 182.541 40.6093C194.287 48.458 203.442 59.6136 208.849 72.6655C214.255 85.7173 215.669 100.079 212.913 113.935C210.157 127.791 203.354 140.518 193.365 150.508C183.375 160.497 170.648 167.3 156.792 170.056C142.936 172.812 128.574 171.398 115.523 165.991C102.471 160.585 91.3151 151.43 83.4665 139.684C75.6178 127.937 71.4286 114.127 71.4286 100C71.4286 81.056 78.9541 62.8878 92.3495 49.4924C105.745 36.0969 123.913 28.5714 142.857 28.5714V28.5714ZM142.857 0C123.079 0 103.745 5.8649 87.3001 16.853C70.8552 27.8412 58.0379 43.459 50.4692 61.7317C42.9004 80.0043 40.9201 100.111 44.7786 119.509C48.6371 138.907 58.1612 156.725 72.1465 170.711C86.1317 184.696 103.95 194.22 123.348 198.079C142.746 201.937 162.853 199.957 181.125 192.388C199.398 184.819 215.016 172.002 226.004 155.557C236.992 139.112 242.857 119.778 242.857 100C242.857 73.4784 232.321 48.043 213.568 29.2893C194.814 10.5357 169.379 0 142.857 0V0Z" fill="white"/>
</svg>
